<!-- coolicons - modified -->
<svg 
  xmlns="http://www.w3.org/2000/svg"
	viewBox="0 0 24 24"
>
  <path d="M24,24H0V0h24V24z M8.1,19l-1.8,1.1c0.3,0.6,0.7,1.2,1.3,1.5C8.3,22,9,22.2,9.7,22.2c0.4,0,0.8,0,1.1-0.1
    c0.8-0.2,1.4-0.7,1.8-1.4c0.4-0.9,0.5-1.8,0.4-2.8c0-0.2,0-0.4,0-0.6c0-1.4,0-2.8,0-4.1c0-0.7,0-1.4,0-2.1V11h-2.3c0,1,0,1.9,0,2.9
    c0,1,0,1.9,0,2.9c0,0.2,0,0.5,0,0.7c0.1,0.7,0,1.3-0.1,2c-0.2,0.4-0.6,0.6-1,0.6c-0.2,0-0.4,0-0.6-0.1c-0.4-0.2-0.7-0.5-0.8-0.9
    l0-0.1C8.2,19,8.1,19,8.1,19L8.1,19z M16.1,18.7l-1.8,1c0.1,0.3,0.4,0.6,0.6,0.9c0.1,0.1,0.1,0.1,0.2,0.2c0.9,0.8,2.1,1.2,3.3,1.2
    c1.6,0.2,3-0.7,3.6-2.2v0c0.2-0.5,0.2-1.1,0.1-1.6l0,0.1c-0.2-1.2-1.1-2.1-3-2.9c-0.1-0.1-0.3-0.1-0.5-0.2c-0.6-0.3-1.2-0.5-1.3-0.9
    c-0.1-0.2-0.1-0.5,0-0.7c0.1-0.5,0.6-0.8,1.1-0.7c0.1,0,0.3,0,0.4,0.1c0.4,0.1,0.8,0.5,1,0.9c1-0.7,1-0.7,1.8-1.1
    c-0.2-0.3-0.4-0.5-0.6-0.8c-0.7-0.7-1.7-1.1-2.7-1H18L17.3,11c-0.7,0.1-1.3,0.5-1.7,1c-0.5,0.7-0.8,1.5-0.7,2.4
    c0.1,0.8,0.6,1.6,1.2,2.1c0.6,0.4,1.2,0.7,1.9,1c0.9,0.4,1.6,0.7,1.7,1.2c0.1,0.3,0,0.7-0.2,0.9c-0.4,0.4-0.9,0.5-1.4,0.5
    c-0.1,0-0.3,0-0.4,0C17.1,19.9,16.4,19.4,16.1,18.7L16.1,18.7z"/>
</svg>

