<svg xmlns="http://www.w3.org/2000/svg" viewBox="0 0 24 24">
	<path d="M18.5,8.6L18.5,8.6c-0.1,0-0.3-0.1-0.4-0.1c0-0.1,0-0.1,0-0.2c0.5-2.5,0.1-4.5-1-5.1c-1.1-0.6-2.9-0.1-4.8,1.5
		C12.2,4.8,12.1,4.9,12,5c0,0-0.1-0.1-0.1-0.1c-1.9-1.7-3.8-2.3-5-1.7c-1.1,0.6-1.5,2.5-1,4.9c0,0.1,0.1,0.3,0.1,0.4
		C5.8,8.5,5.6,8.6,5.5,8.6C3.1,9.5,1.7,10.7,1.7,12c0,1.3,1.5,2.6,4,3.5c0.1,0,0.2,0.1,0.3,0.1c0,0.1-0.1,0.3-0.1,0.5
		c-0.4,2.4,0,4.2,1.1,4.8c1.2,0.7,3,0.1,4.9-1.6c0.1-0.1,0.1-0.1,0.2-0.2c0.1,0.1,0.2,0.2,0.3,0.3c1.3,1.1,2.6,1.7,3.6,1.7
		c0.4,0,0.8-0.1,1.1-0.3c1.2-0.7,1.6-2.6,1.1-5c0-0.1,0-0.2-0.1-0.3c0,0,0.1,0,0.1,0c1.2-0.4,2.2-0.9,2.9-1.5c0.8-0.6,1.2-1.3,1.2-2
		C22.3,10.7,20.9,9.5,18.5,8.6z M8.5,9.4C8.4,9.5,8.4,9.7,8.3,9.8C8.2,10,8.1,10.2,8,10.3C7.9,10,7.8,9.8,7.7,9.5
		C8,9.5,8.3,9.4,8.5,9.4z M8.3,14.2L8.3,14.2c0.1,0.2,0.2,0.3,0.3,0.5c-0.3,0-0.6-0.1-0.9-0.1C7.8,14.2,7.9,14,8,13.7
		C8.1,13.9,8.2,14,8.3,14.2z M15.7,9.8c-0.1-0.2-0.2-0.3-0.3-0.5c0.3,0,0.6,0.1,0.8,0.2c-0.1,0.3-0.2,0.5-0.3,0.8
		C15.9,10.1,15.8,10,15.7,9.8z M15.5,14.6c0.1-0.2,0.2-0.3,0.3-0.5l0,0c0.1-0.2,0.2-0.3,0.3-0.5c0.1,0.3,0.2,0.6,0.3,0.8
		C16,14.5,15.8,14.6,15.5,14.6z M15.3,12c-0.2,0.5-0.5,1-0.8,1.5c-0.3,0.4-0.5,0.9-0.9,1.4c-0.5,0-1.1,0.1-1.6,0.1
		c-0.5,0-1.1,0-1.6,0c-0.3-0.5-0.6-0.9-0.9-1.4C9.2,13,9,12.5,8.7,12c0.2-0.5,0.5-0.9,0.8-1.4c0.3-0.4,0.5-0.9,0.9-1.4
		c0.5,0,1.1-0.1,1.6-0.1c0.5,0,1.1,0,1.6,0.1c0.3,0.5,0.6,0.9,0.9,1.4C14.8,11,15,11.5,15.3,12z M16.7,8c0,0,0,0.1,0,0.1
		c-0.8-0.2-1.5-0.3-2.3-0.3C14,7.2,13.5,6.6,13,6c0.1-0.1,0.2-0.1,0.2-0.2c0.7-0.6,1.3-1,1.9-1.3c0.5-0.2,0.9-0.2,1.1-0.1
		C16.8,4.7,17.1,6.1,16.7,8z M11.5,7.7C11.6,7.5,11.8,7.2,12,7c0.2,0.2,0.4,0.4,0.5,0.7c-0.2,0-0.4,0-0.6,0
		C11.8,7.7,11.6,7.7,11.5,7.7z M9.6,7.8C8.8,7.9,8.1,8,7.3,8.1c0-0.1,0-0.2-0.1-0.3C7.1,6.9,7,6.1,7.1,5.5C7.2,5,7.4,4.6,7.6,4.4
		l0,0c0.5-0.3,1.8,0.2,3.3,1.5C11,6,11,6,11,6C10.5,6.6,10,7.2,9.6,7.8z M6.3,9.9c0.2,0.7,0.5,1.4,0.8,2.1c-0.3,0.7-0.6,1.4-0.8,2.2
		c-0.1,0-0.1,0-0.2-0.1l0,0c-0.6-0.2-1.6-0.6-2.4-1.2l0,0c-0.3-0.2-0.5-0.6-0.6-1c0-0.5,1-1.3,2.8-2C6.1,10,6.2,9.9,6.3,9.9z
		 M7.2,16.3c0-0.1,0.1-0.3,0.1-0.4c0.8,0.2,1.5,0.3,2.3,0.3c0.4,0.6,0.9,1.2,1.4,1.8c-0.1,0.1-0.1,0.1-0.2,0.1l0,0
		c-0.6,0.6-1.3,1-2.1,1.3l0,0c-0.4,0.2-0.8,0.2-1.1,0.1C7.2,19.3,6.9,18,7.2,16.3z M12,16.3c0.2,0,0.4,0,0.6,0
		c-0.2,0.2-0.4,0.5-0.6,0.7c-0.2-0.2-0.4-0.4-0.6-0.7C11.6,16.3,11.8,16.3,12,16.3z M16.9,18.6L16.9,18.6c0,0.4-0.2,0.8-0.5,1
		c-0.5,0.2-1.6-0.1-3-1.3c-0.1-0.1-0.2-0.2-0.3-0.2c0.5-0.6,1-1.2,1.4-1.8c0.8-0.1,1.5-0.2,2.3-0.3c0,0.1,0,0.1,0,0.2v0
		C17,16.9,17,17.7,16.9,18.6z M17.7,14.1c-0.2-0.7-0.5-1.4-0.9-2.1c0.3-0.7,0.6-1.4,0.8-2.1c0.1,0,0.2,0.1,0.3,0.1
		c0.9,0.3,1.6,0.7,2.2,1.1c0.5,0.3,0.7,0.7,0.7,0.9c0,0.3-0.3,0.6-0.8,1C19.5,13.4,18.7,13.8,17.7,14.1
		C17.8,14.1,17.7,14.1,17.7,14.1z"/>
	<circle cx="12" cy="12" r="2.1"/>
</svg>
