<!-- fontawesome - modified -->
<svg 
  xmlns="http://www.w3.org/2000/svg"
	viewBox="0 0 527 463"
>
	<path d="M428.1,145.6L428.1,145.6c-3.3-1.1-6.5-2.1-9.8-3.1c0.3-1.5,0.6-3,1-4.4c13.4-64.8,3.4-113.9-26.7-131.3
		c-28.8-16.5-74.1-1.8-121.2,39.2c-2.5,2.1-5,4.4-7.6,6.9c-1.1-1-2.2-2-3.3-3c-49.6-44-97.1-59.9-127.1-42.4
		C104.7,24,94.8,70.6,106.7,132c0.7,3.5,1.4,6.8,2.1,10.1c-4.2,1.3-8.2,2.6-12.1,4c-60.6,21-96.7,52.8-96.7,85
		c0,33.2,38.8,67.2,101.4,88.6c2.3,0.8,4.7,1.6,7,2.3c-0.8,3.7-1.7,7.5-2.4,11.5c-11.4,60.2-1.1,106,27.5,122.5
		c29.6,17.1,77.6,1.8,125.3-40c2-1.7,3.8-3.4,5.5-5c3.1,2.8,6,5.4,8.7,7.8c33.6,28.9,66.4,44.2,92.7,44.2c10.1,0,19.2-2.2,27.1-6.8
		c29.6-17.1,40.3-66.3,28-128.5c-0.5-2.2-0.9-4.5-1.5-6.9c1-0.3,1.9-0.6,2.9-0.9c30-9.9,55.5-22.9,73.7-37.4
		c20.2-16.1,30.9-33.9,30.9-51.4C527,198.8,490,166.8,428.1,145.6z M175.2,164.5c-2.5,4.1-4.8,8.1-7.1,12c-2.4,4.2-4.6,8.1-6.8,12
		c-2.6-6.7-5-13.5-7.2-20.2C160.9,166.9,167.9,165.6,175.2,164.5z M168.2,286.7L168.2,286.7c2.3,4,4.9,8.3,7.6,12.7
		c-7.4-1.1-14.7-2.3-22-3.7c2.3-6.9,4.8-13.9,7.6-21.1C163.7,278.9,166,282.9,168.2,286.7z M358.8,176.3c-2.3-3.9-4.6-7.9-7-11.8
		c7.3,1.1,14.4,2.5,21.4,3.9c-2.3,6.8-4.7,13.5-7.4,20.4C363.4,184.3,361.1,180.2,358.8,176.3z M351.6,298.8c2.6-4.3,5-8.5,7.3-12.3
		l0,0c2.4-4.1,4.8-8.4,7.3-13c2.8,7,5.4,14.1,7.9,21.3C366.6,296.3,359.1,297.7,351.6,298.8z M347,231.2
		c-6.1,12.5-12.8,24.9-19.7,37c-6.4,11.3-13.6,22.9-21.9,35.5c-13.2,0.9-27.2,1.3-41.9,1.3c-13.7,0-27.6-0.4-41.5-1.2
		c-7.8-11.5-15.3-23.5-22.2-35.5c-6.8-11.7-13.2-23.8-19.7-36.9c5.7-11.8,12.2-23.9,19.6-36.9c6.5-11.3,13.7-22.9,22.1-35.4
		c14-0.9,28-1.4,41.7-1.4c13.8,0,27.8,0.5,41.7,1.4c7.6,11.5,15,23.3,22,35.3C333.9,206,340.6,218.3,347,231.2z M383.6,130.6
		c-0.2,0.9-0.4,1.8-0.5,2.6c-19.3-4.1-38.6-7-57.6-8.9c-11.4-16-23.5-31.3-36.2-45.5c2.1-1.9,4.1-3.7,6.1-5.5
		c17.2-15,34.4-26.2,49.7-32.2c12.9-5.1,23.6-6.2,29.3-2.9C386.6,45.3,394,80,383.6,130.6z M249.6,121.5c4.6-5.6,9.3-11.2,14.1-16.6
		c4.8,5.4,9.4,10.9,14,16.6c-4.7-0.1-9.4-0.1-14.1-0.1C258.9,121.4,254.3,121.4,249.6,121.5z M201.7,124.4
		c-19,1.8-38.3,4.7-57.5,8.7c-0.6-2.7-1.2-5.4-1.8-8.1c-4.4-22.5-5.4-42.9-3.1-59.2c2-13.8,6.4-23.6,12.1-26.8l0,0
		c12.2-7.1,46,3.9,84.7,38.2c0.7,0.6,1.3,1.2,2,1.8C225.4,93.1,213.1,108.4,201.7,124.4z M118.6,177.3c6.1,18.5,13.2,36.7,21.1,54.3
		c-8.1,17.9-15.3,36.4-21.4,55.2c-1.7-0.5-3.4-1.1-5.1-1.7l-0.2-0.1c-14.2-4.5-40.9-14.3-60.6-29.9l-0.4-0.3
		c-8.2-5.7-13.8-14.5-15.6-24.3c0.7-12.4,25.9-33.9,72.2-50C111.8,179.5,115,178.4,118.6,177.3z M142,340.1c0.7-3.4,1.3-6.5,1.9-9.3
		c19.4,3.9,38.9,6.6,58.2,8.2c11.3,15.8,23.7,31.2,36.8,45.8c-1.4,1.3-2.8,2.5-4,3.6l-0.1,0.1c-16,14.6-34.2,26-54.1,33.9l-0.5,0.2
		c-9,4.3-19.5,4.8-28.8,1.3C140.1,416.7,133.3,385.8,142,340.1z M263.5,341.6c5.2,0,10.2,0,14.9-0.2c-4.5,5.8-9.3,11.5-14.2,17.1
		c-4.9-5.5-9.7-11.2-14.5-17.1C254.3,341.5,258.9,341.6,263.5,341.6z M387.6,398.7l-0.1,0.5c-0.7,9.9-5.5,19.2-13.2,25.6
		c-11.9,6.2-41.9-3.3-77.3-33.7c-2.3-2-4.7-4.2-7.1-6.3c12.8-14.6,24.9-30,35.9-45.9c19.6-1.8,39.2-4.7,58.4-8.8
		c0.3,1.6,0.7,3.2,1,4.8l0,0.2C389.9,355.8,390.7,377.2,387.6,398.7z M409.5,285.6c-6.1-18.1-13.5-36.4-22-54.5
		c7.9-17,14.9-35,21.1-53.6c2.4,0.8,4.9,1.6,7.7,2.5c21.9,7.5,41.5,17.2,55.1,27.1c12,8.7,19.1,17.6,19.1,23.8
		c0,6.8-7.7,16.5-20.6,25.8c-14.7,10.6-35.6,20.7-59,28.5C410.4,285.3,410,285.4,409.5,285.6z"/>
	<circle cx="263.5" cy="231.5" r="53.3"/>
</svg>
