<!-- feathericons - modified -->
<svg 
  xmlns="http://www.w3.org/2000/svg"
	viewBox="0 0 24 24"
>
  <path d="M12,24C5.4,24,0,18.6,0,12C0,5.4,5.4,0,12,0c6.6,0,12,5.4,12,12C24,18.6,18.6,24,12,24z M12,2.2c-5.4,0-9.8,4.4-9.8,9.8
    c0,5.4,4.4,9.8,9.8,9.8c5.4,0,9.8-4.4,9.8-9.8C21.8,6.6,17.4,2.2,12,2.2z"/>
  <path d="M12,17.4c-3.2,0-5.2-2.5-5.2-2.6c-0.4-0.5-0.3-1.2,0.2-1.5c0.5-0.4,1.2-0.3,1.5,0.2c0,0,1.4,1.8,3.5,1.8
    c2.1,0,3.5-1.7,3.5-1.8c0.4-0.5,1-0.6,1.5-0.2c0.5,0.4,0.6,1,0.2,1.5C17.2,14.9,15.2,17.4,12,17.4z"/>
  <path d="M8.7,9.8c-0.6,0-1.1-0.5-1.1-1.1c0-0.6,0.5-1.1,1.1-1.1h0c0.6,0,1.1,0.5,1.1,1.1C9.8,9.3,9.3,9.8,8.7,9.8z"/>
  <path d="M15.3,9.8c-0.6,0-1.1-0.5-1.1-1.1c0-0.6,0.5-1.1,1.1-1.1h0c0.6,0,1.1,0.5,1.1,1.1C16.4,9.3,15.9,9.8,15.3,9.8z"/>
</svg>

