<svg xmlns="http://www.w3.org/2000/svg" viewBox="0 0 24 24">
  <path d="M3,3v18h18V3H3ZM13.51,12.73h-2.22v6.31h-1.57v-6.32h-2.22v-.68c0-.24,0-.47.02-.71.01-.01,1.37-.01,3.01-.01h2.98v.7s0,.7,0,.7ZM19.34,17.74c-.27.71-.94,1.19-1.89,1.35-.43.05-.87.04-1.3-.01-.66-.11-1.27-.43-1.74-.91-.16-.17-.46-.63-.44-.66.05-.04.1-.07.16-.1l.63-.35.49-.28.1.15c.17.25.39.46.65.62.55.29,1.29.25,1.66-.08.26-.25.3-.65.09-.95-.14-.19-.41-.35-1.17-.68-.88-.38-1.26-.61-1.61-.99-.22-.25-.38-.54-.47-.85-.07-.36-.08-.73-.03-1.09.18-.85.82-1.45,1.75-1.62.43-.05.87-.04,1.3.04h0c.41.09.78.31,1.07.61.16.16.3.35.41.55,0,.02-.74.52-1.19.8-.02.01-.08-.06-.15-.17-.17-.29-.47-.47-.8-.48-.52-.04-.85.24-.85.68,0,.11.02.22.07.32.11.24.33.38.99.66,1.22.53,1.75.87,2.07,1.37.36.55.44,1.43.2,2.08Z"/>
</svg>