<!-- coolicons - modified -->
<svg 
	xmlns="http://www.w3.org/2000/svg"
	viewBox="0 0 24 24" 
>
	<path d="M12,14c2.2,0,4-1.8,4-4c0-2.2-1.8-4-4-4c-2.2,0-4,1.8-4,4C8,12.2,9.8,14,12,14z M12,8c1.1,0,2,0.9,2,2c0,1.1-0.9,2-2,2
		s-2-0.9-2-2C10,8.9,10.9,8,12,8z"/>
	<path d="M2.4,24C1.1,24,0,22.9,0,21.6V2.4C0,1.1,1.1,0,2.4,0h19.2C22.9,0,24,1.1,24,2.4v19.2c0,1.3-1.1,2.4-2.4,2.4H2.4z M2.4,2.4
		v19.2H6c0-3.3,2.7-6,6-6c3.3,0,6,2.7,6,6h3.6V2.4H2.4z M15.6,21.6c0-2-1.6-3.6-3.6-3.6s-3.6,1.6-3.6,3.6H15.6z"/>
</svg>
