<svg 
	xmlns="http://www.w3.org/2000/svg"
	viewBox="0 0 365.89 80" 
>
	<style type="text/css">
		.fill-white {
			fill: white;
		}
	</style>
	<rect width="80" height="80"/>
	<g>
		<g>
			<polygon class="fill-white" points="29.69,43.44 22.81,50.31 15.94,57.19 12.5,60.62 19.37,67.5 22.81,64.06 29.69,57.19 36.56,50.31 		
				"/>
		</g>
		<g>
			<polygon class="fill-white" points="22.81,29.69 29.69,36.56 36.56,29.69 29.69,22.81 22.81,15.94 19.37,12.5 12.5,19.37 15.94,22.81 		
				"/>
		</g>
		<g>
			
				<rect x="14.51" y="35.14" transform="matrix(0.7071 -0.7071 0.7071 0.7071 -22.6095 25.4159)" class="fill-white" width="9.72" height="9.72"/>
		</g>
		<g>
			<polygon class="fill-white" points="50.31,36.56 57.19,29.69 64.06,22.81 67.5,19.37 60.62,12.5 57.19,15.94 50.31,22.81 43.44,29.69 		
				"/>
		</g>
		<g>
			
				<rect x="35.14" y="14.51" transform="matrix(0.7071 -0.7071 0.7071 0.7071 -1.9845 33.959)" class="fill-white" width="9.72" height="9.72"/>
		</g>
		<g>
			<polygon class="fill-white" points="57.19,50.31 50.31,43.44 43.44,50.31 50.31,57.19 57.19,64.06 60.62,67.5 67.5,60.62 64.06,57.19 		
				"/>
		</g>
		<g>
			
				<rect x="35.14" y="55.76" transform="matrix(0.7071 -0.7071 0.7071 0.7071 -31.1526 46.0409)" class="fill-white" width="9.72" height="9.72"/>
		</g>
		<g>
			
				<rect x="55.76" y="35.14" transform="matrix(0.7071 -0.7071 0.7071 0.7071 -10.5276 54.584)" class="fill-white" width="9.72" height="9.72"/>
		</g>
	</g>
	<g>
		<path d="M105.12,52.39c-3.78,0-5.54-2.27-5.54-5.5V34.41h-6.68v-3.7h4.75c1.6,0,2.23-0.55,2.23-2.23v-5.42h4.29v7.65h9.24v3.7
			h-9.24v14.28h9.24v3.7H105.12z"/>
		<path d="M119.6,48.69h5.75V34.41h-5.75v-3.7h10.33v5.75h0.25c0.84-3.02,2.73-5.75,7.14-5.75h2.6v4.37h-4.28
			c-3.74,0-5.71,2.48-5.71,5.5v8.11h7.86v3.7H119.6V48.69z"/>
		<path d="M162.28,52.39c-2.6,0-3.91-1.47-4.16-3.65h-0.21c-0.84,2.6-3.11,4.16-6.51,4.16c-4.41,0-7.27-2.48-7.27-6.55
			c0-4.2,3.07-6.47,9.49-6.47h4.16v-1.68c0-2.9-1.55-4.41-4.66-4.41c-2.77,0-4.41,1.18-5.59,2.98l-2.73-2.23
			c1.22-2.35,4.16-4.33,8.74-4.33c5.46,0,8.82,2.73,8.82,7.69v10.88h2.73v3.61H162.28z M157.78,45.92v-3.15h-4.07
			c-3.36,0-4.96,1.05-4.96,2.98v0.84c0,1.93,1.51,2.94,3.95,2.94C155.64,49.53,157.78,48.06,157.78,45.92z"/>
		<path d="M176.6,52.39l-7.77-21.68h4.75l2.98,9.16l2.81,8.7h0.25l2.81-8.7l2.98-9.16H190l-7.77,21.68H176.6z"/>
		<path d="M196.25,48.69h7.39V34.41h-7.39v-3.7h11.97v17.98h6.93v3.7h-18.9V48.69z M202.81,24.29V23.4c0-1.39,0.84-2.48,3.11-2.48
			c2.31,0,3.15,1.09,3.15,2.48v0.88c0,1.39-0.84,2.48-3.11,2.48C203.65,26.77,202.81,25.67,202.81,24.29z"/>
		<path d="M219.69,48.74l2.81-2.52c1.89,2.06,4.2,3.19,7.44,3.19c2.94,0,4.96-0.97,4.96-3.11c0-1.85-1.47-2.35-3.32-2.6l-3.45-0.55
			c-3.4-0.5-7.22-1.72-7.22-6.18c0-4.41,3.7-6.76,9.24-6.76c4.03,0,6.93,1.26,8.91,3.4l-2.56,2.69c-1.13-1.3-3.11-2.6-6.51-2.6
			c-2.98,0-4.58,1.01-4.58,2.9c0,1.85,1.51,2.35,3.32,2.6l3.44,0.55c3.44,0.5,7.22,1.68,7.22,6.13c0,4.37-3.61,7.01-9.54,7.01
			C225.19,52.89,221.75,51.26,219.69,48.74z"/>
		<path d="M244.93,59.91v-3.95h20.16v3.95H244.93z"/>
		<path d="M270.72,41.55c0-6.93,3.87-11.34,10.25-11.34c4.45,0,7.1,2.1,8.44,5.12l-3.57,1.93c-0.76-2.02-2.35-3.28-4.87-3.28
			c-3.44,0-5.46,2.31-5.46,5.75v3.61c0,3.4,1.97,5.75,5.54,5.75c2.69,0,4.33-1.34,5.33-3.45l3.36,2.06c-1.39,3.02-4.2,5.17-8.74,5.17
			C274.54,52.89,270.72,48.48,270.72,41.55z"/>
		<path d="M295.12,41.55c0-6.93,3.91-11.34,10.29-11.34s10.29,4.41,10.29,11.34s-3.91,11.34-10.29,11.34S295.12,48.48,295.12,41.55z
			M310.91,43.19v-3.28c0-4.03-2.18-6.09-5.5-6.09s-5.5,2.06-5.5,6.09v3.28c0,4.03,2.18,6.09,5.5,6.09S310.91,47.22,310.91,43.19z"/>
		<path d="M321.16,48.69h7.18V25h-7.18v-3.7h11.76v27.39h7.18v3.7h-18.95V48.69z"/>
		<path d="M345.73,41.59c0-6.97,4.03-11.38,10.21-11.38c6.09,0,9.96,4.37,9.96,10.75v1.72h-15.54v0.71c0,3.4,2.27,5.8,6.01,5.8
			c2.77,0,4.79-1.3,6.01-3.32l2.86,2.52c-1.47,2.52-4.49,4.49-8.95,4.49C349.64,52.89,345.73,48.48,345.73,41.59z M350.35,39.45v0.29
			h10.88v-0.42c0-3.4-2.1-5.63-5.29-5.63C352.66,33.7,350.35,36.09,350.35,39.45z"/>
	</g>
</svg>
