<svg xmlns="http://www.w3.org/2000/svg" viewBox="0 0 365.9 80">
	<path d="M0,0v80h80V0H0z M40,12.5l6.9,6.9L40,26.2l-6.9-6.9L40,12.5z M19.4,12.5l3.4,3.4l6.9,6.9l6.9,6.9l-6.9,6.9
		l-6.9-6.9l-6.9-6.9l-3.4-3.4L19.4,12.5z M19.4,33.1l6.9,6.9l-6.9,6.9L12.5,40L19.4,33.1z M22.8,64.1l-3.4,3.4l-6.9-6.9l3.4-3.4
		l6.9-6.9l6.9-6.9l6.9,6.9l-6.9,6.9L22.8,64.1z M40,67.5l-6.9-6.9l6.9-6.9l6.9,6.9L40,67.5z M60.6,67.5l-3.4-3.4l-6.9-6.9l-6.9-6.9
		l6.9-6.9l6.9,6.9l6.9,6.9l3.4,3.4L60.6,67.5z M53.7,40l6.9-6.9l6.9,6.9l-6.9,6.9L53.7,40z M64.1,22.8l-6.9,6.9l-6.9,6.9l-6.9-6.9
		l6.9-6.9l6.9-6.9l3.4-3.4l6.9,6.9L64.1,22.8z"/>
	<path d="M105.1,52.4c-3.8,0-5.5-2.3-5.5-5.5V34.4h-6.7v-3.7h4.8c1.6,0,2.2-0.5,2.2-2.2v-5.4h4.3v7.6h9.2v3.7h-9.2v14.3
		h9.2v3.7H105.1z"/>
	<path d="M119.6,48.7h5.8V34.4h-5.8v-3.7h10.3v5.8h0.2c0.8-3,2.7-5.8,7.1-5.8h2.6v4.4h-4.3c-3.7,0-5.7,2.5-5.7,5.5v8.1
		h7.9v3.7h-18.2V48.7z"/>
	<path d="M162.3,52.4c-2.6,0-3.9-1.5-4.2-3.7h-0.2c-0.8,2.6-3.1,4.2-6.5,4.2c-4.4,0-7.3-2.5-7.3-6.5
		c0-4.2,3.1-6.5,9.5-6.5h4.2v-1.7c0-2.9-1.6-4.4-4.7-4.4c-2.8,0-4.4,1.2-5.6,3l-2.7-2.2c1.2-2.3,4.2-4.3,8.7-4.3
		c5.5,0,8.8,2.7,8.8,7.7v10.9h2.7v3.6H162.3z M157.8,45.9v-3.2h-4.1c-3.4,0-5,1-5,3v0.8c0,1.9,1.5,2.9,3.9,2.9
		C155.6,49.5,157.8,48.1,157.8,45.9z"/>
	<path d="M176.6,52.4l-7.8-21.7h4.8l3,9.2l2.8,8.7h0.2l2.8-8.7l3-9.2h4.6l-7.8,21.7H176.6z"/>
	<path d="M196.2,48.7h7.4V34.4h-7.4v-3.7h12v18h6.9v3.7h-18.9V48.7z M202.8,24.3v-0.9c0-1.4,0.8-2.5,3.1-2.5
		c2.3,0,3.1,1.1,3.1,2.5v0.9c0,1.4-0.8,2.5-3.1,2.5C203.6,26.8,202.8,25.7,202.8,24.3z"/>
	<path d="M219.7,48.7l2.8-2.5c1.9,2.1,4.2,3.2,7.4,3.2c2.9,0,5-1,5-3.1c0-1.8-1.5-2.3-3.3-2.6l-3.4-0.5
		c-3.4-0.5-7.2-1.7-7.2-6.2c0-4.4,3.7-6.8,9.2-6.8c4,0,6.9,1.3,8.9,3.4l-2.6,2.7c-1.1-1.3-3.1-2.6-6.5-2.6c-3,0-4.6,1-4.6,2.9
		c0,1.8,1.5,2.3,3.3,2.6l3.4,0.5c3.4,0.5,7.2,1.7,7.2,6.1c0,4.4-3.6,7-9.5,7C225.2,52.9,221.7,51.3,219.7,48.7z"/>
	<path d="M244.9,59.9v-4h20.2v4H244.9z"/>
	<path d="M270.7,41.6c0-6.9,3.9-11.3,10.2-11.3c4.5,0,7.1,2.1,8.4,5.1l-3.6,1.9c-0.8-2-2.4-3.3-4.9-3.3
		c-3.4,0-5.5,2.3-5.5,5.8v3.6c0,3.4,2,5.8,5.5,5.8c2.7,0,4.3-1.3,5.3-3.5l3.4,2.1c-1.4,3-4.2,5.2-8.7,5.2
		C274.5,52.9,270.7,48.5,270.7,41.6z"/>
	<path d="M295.1,41.6c0-6.9,3.9-11.3,10.3-11.3s10.3,4.4,10.3,11.3s-3.9,11.3-10.3,11.3S295.1,48.5,295.1,41.6z
		 M310.9,43.2v-3.3c0-4-2.2-6.1-5.5-6.1s-5.5,2.1-5.5,6.1v3.3c0,4,2.2,6.1,5.5,6.1S310.9,47.2,310.9,43.2z"/>
	<path d="M321.2,48.7h7.2V25h-7.2v-3.7h11.8v27.4h7.2v3.7h-19L321.2,48.7L321.2,48.7z"/>
	<path d="M345.7,41.6c0-7,4-11.4,10.2-11.4c6.1,0,10,4.4,10,10.8v1.7h-15.5v0.7c0,3.4,2.3,5.8,6,5.8
		c2.8,0,4.8-1.3,6-3.3l2.9,2.5c-1.5,2.5-4.5,4.5-9,4.5C349.6,52.9,345.7,48.5,345.7,41.6z M350.4,39.5v0.3h10.9v-0.4
		c0-3.4-2.1-5.6-5.3-5.6C352.7,33.7,350.4,36.1,350.4,39.5z"/>
</svg>
